inDegrees=no
num_controls=7
num_derivatives=13
num_iterations=131
num_multipliers=7
num_parameters=0
num_slacks=7
num_states=26
objective=5.891919
objective_accelerations=0.759580
objective_balance=0.015839
objective_effort=0.515891
objective_height=4.576577
objective_ligament=0.024033
solver_duration=1098.107740
status=Solve_Succeeded
success=true
DataType=double
version=3
OpenSimVersion=4.4-2022-07-23-0e9fedc
endheader
time	/jointset/ground_pelvis/pelvis_tilt/value	/jointset/ground_pelvis/pelvis_tx/value	/jointset/ground_pelvis/pelvis_ty/value	/jointset/hip_r/hip_flexion_r/value	/jointset/hip_r/hip_adduction_r/value	/jointset/hip_r/hip_rotation_r/value	/jointset/back/lumbar_extension/value	/jointset/patellofemoral_r/patellar_flexion_r/value	/jointset/knee_r/knee_flexion_r/value	/jointset/knee_r/knee_adduction_r/value	/jointset/knee_r/knee_rotation_r/value	/jointset/ankle_r/ankle_angle_r/value	/jointset/subtalar_r/subtalar_angle_r/value	/jointset/ground_pelvis/pelvis_tilt/speed	/jointset/ground_pelvis/pelvis_tx/speed	/jointset/ground_pelvis/pelvis_ty/speed	/jointset/hip_r/hip_flexion_r/speed	/jointset/hip_r/hip_adduction_r/speed	/jointset/hip_r/hip_rotation_r/speed	/jointset/back/lumbar_extension/speed	/jointset/patellofemoral_r/patellar_flexion_r/speed	/jointset/knee_r/knee_flexion_r/speed	/jointset/knee_r/knee_adduction_r/speed	/jointset/knee_r/knee_rotation_r/speed	/jointset/ankle_r/ankle_angle_r/speed	/jointset/subtalar_r/subtalar_angle_r/speed	/forceset/tau_hip_flexion_r	/forceset/tau_hip_adduction_r	/forceset/tau_hip_rotation_r	/forceset/tau_knee_flexion_r	/forceset/tau_ankle_angle_r	/forceset/tau_subtalar_angle_r	/forceset/tau_lumbar_extension	lambda_cid13_p0	lambda_cid14_p0	lambda_cid14_p1	lambda_cid14_p2	lambda_cid14_p3	lambda_cid14_p4	lambda_cid14_p5	/jointset/ground_pelvis/pelvis_tilt/accel	/jointset/ground_pelvis/pelvis_tx/accel	/jointset/ground_pelvis/pelvis_ty/accel	/jointset/hip_r/hip_flexion_r/accel	/jointset/hip_r/hip_adduction_r/accel	/jointset/hip_r/hip_rotation_r/accel	/jointset/back/lumbar_extension/accel	/jointset/patellofemoral_r/patellar_flexion_r/accel	/jointset/knee_r/knee_flexion_r/accel	/jointset/knee_r/knee_adduction_r/accel	/jointset/knee_r/knee_rotation_r/accel	/jointset/ankle_r/ankle_angle_r/accel	/jointset/subtalar_r/subtalar_angle_r/accel	gamma_cid13_p0	gamma_cid14_p0	gamma_cid14_p1	gamma_cid14_p2	gamma_cid14_p3	gamma_cid14_p4	gamma_cid14_p5
1.5	-0.1133682698796219	0.01856665793747356	0.7930621260526468	0.9146260276426426	-0.2264249593229451	-0.1118844854817517	-0.6386938989214871	1.022378706680412	1.022378706679866	-0.05490660273325453	0.1745195404534811	0.3154186157750899	0.1413578482932048	0.5346775508839522	0.2423353329630471	0.6092356631172423	-2.289918324595886	0.02806110265016969	-0.2374241891699261	0.7950961354195096	-2.17456527952703	-2.17456527952726	0.4495536707091357	4.630450041269045e-05	-0.5304084217416035	-0.1694620716388734	-0.1787930467765364	0.003333776427103109	0.01907790482803725	-0.3165830641429233	0.02178008977841839	0.0006761280295763574	0.2255959753784134	-5.296215928533129	-34.68375180970884	-5.4736852473313	0.945581594660042	-4.638133638760745	-626.1196311473093	63.88907784118327	0.324682057279096	0.694217539680358	-0.6043308594526089	-1.146716415074151	-0.1874830367013547	-0.5618265677755442	2.006599840854312	-1.48898879924206	-1.488988799242065	0.4960336075507782	-0.03118614487998481	-0.8412591796896431	-0.4606572368208611	2.327048832588468e-07	1.992596907113995e-07	-1.20182337380999e-06	1.876382179121251e-06	1.352944431250604e-08	3.672000710687639e-07	-6.129711698843045e-07
1.51	-0.1080055592445119	0.02102449152444128	0.7991230668658204	0.8916715042341232	-0.2261549571404847	-0.1142867013308791	-0.6306443176012507	1.000561213902273	1.000561213901974	-0.05038424524726332	0.1745202856090708	0.3100729902466092	0.1396386609263324	0.5377750804336531	0.2492038116715018	0.6028212277694864	-2.300687640104897	0.02592644963589448	-0.2430213492219789	0.8147164788266287	-2.18863728219182	-2.188637282191945	0.4548908308076968	9.485199289272617e-05	-0.5386215406450247	-0.1743359948669035	-0.170891944648928	0.002371178671243359	0.01902303379482059	-0.3117281581385174	0.02325578333584506	-0.0001660985710364091	0.218336823944391	-6.222767939545479	-33.88430992953383	-5.580895820374581	0.8272135959800456	-4.710646468295216	-620.3078097043592	63.21475968199873	0.2888799863239602	0.6790406093414875	-0.6796122780893011	-0.9972098400093464	-0.2282629558039709	-0.5586571050062843	1.924204120666481	-1.321953622306324	-1.321953622290666	0.5482756720128287	0.02196477990976855	-0.7970016117394421	-0.4949120062410451	2.332571252028609e-07	1.785793682988363e-07	-1.474870993239381e-06	1.703331880775371e-06	4.910655478219453e-08	3.834246027453267e-07	-8.509356729102714e-07
1.52	-0.1026145549973882	0.02355018541307611	0.8051159408443859	0.8686182535262927	-0.2259066627925744	-0.1167448880567112	-0.6224016423409344	0.9786118715730585	0.9786118715729571	-0.04580937246803365	0.1745213341561758	0.3046481008558755	0.137871903899091	0.5403362732836527	0.2559073932964697	0.5956222961956831	-2.309663784461722	0.02371953574102751	-0.2486183645174528	0.8337149234347729	-2.20093518974496	-2.20093518974498	0.4600567293464036	0.0001069828292785845	-0.5462611941912843	-0.1789760037128047	-0.1629908425212596	0.001408580915550132	0.01896816276121615	-0.3068732521341487	0.02473147689331652	-0.00100832517135565	0.2110776725104122	-7.22536676180294	-33.07774301671564	-5.677268860038891	0.6961632336275982	-4.815779022261054	-614.4099783320275	62.61609992605241	0.2174147173390572	0.6612381229829642	-0.7612301046621012	-0.7880821846371135	-0.2019352128197277	-0.5617976164599725	1.882220081059467	-1.134169776912006	-1.134169776912018	0.4617812955799129	-0.03846947609844605	-0.7265661082573728	-0.4138743603952911	2.314956811413425e-07	1.587668357075458e-07	-1.700295407638748e-06	1.529605708841496e-06	8.026324073533539e-08	3.947009585393519e-07	-1.045350917835735e-06
1.53	-0.09720062428386309	0.02614195163502942	0.8110329772164134	0.8454842912997189	-0.2256806788515244	-0.1192597709154965	-0.6139722744968837	0.9565483776173371	0.9565483776173276	-0.04118440244251587	0.1745225877135565	0.2991496493148649	0.1360601062256327	0.5423603138841937	0.2624037637281885	0.5876611303796132	-2.316817368494072	0.02147008240044902	-0.2543717120141225	0.852034367537349	-2.211460827548728	-2.211460827548813	0.4648956906619994	0.0001439364253577846	-0.5533375094517502	-0.1833393628520615	-0.1552797795027574	0.0002942714521810211	0.01889642940357715	-0.301915166664367	0.02551117257973226	-0.001842795759839889	0.2039024776178023	-8.302601330250065	-32.52299799351082	-5.796065908629728	0.547785503709458	-4.615330653663973	-608.8533965418749	62.0334497902306	0.1814756329285955	0.6375475758832588	-0.8320562061395321	-0.6322872892799518	-0.2374760348003471	-0.5837915884861663	1.788164899383181	-0.966389708148538	-0.9663897081583126	0.4884436084069274	0.02500226973435597	-0.68434953933334	-0.4411019457729056	2.272759456989458e-07	1.398763298013577e-07	-1.875120166693715e-06	1.355161421220378e-06	1.067232256396444e-07	4.007198774581811e-07	-1.193495076029416e-06
1.54	-0.09176913778401521	0.02879742377582314	0.816866702653068	0.8222881350774923	-0.2254773945719137	-0.1218325249036396	-0.6053634405468987	0.9343887014983745	0.9343887014984158	-0.0365123447920126	0.1745242557050363	0.2935831975603637	0.134205967909766	0.5438474305453722	0.2686485770645509	0.5789601091211906	-2.322102583596286	0.01917960345483903	-0.2601925903993852	0.8696081446209782	-2.220171622394065	-2.220171622394214	0.4694742543318663	0.000189869712350275	-0.5598612368878965	-0.1874441321945825	-0.1475687164841641	-0.0008200380109039469	0.01882469604561526	-0.2969570811946213	0.02629086826622024	-0.002677266347854999	0.1967272827252489	-9.450707320924252	-31.96173441894855	-5.9050702655926	0.3879644463110674	-4.444944782816972	-603.2170133103017	61.52025590364366	0.1100299294668189	0.610926703911598	-0.9092011931326187	-0.4144083986099161	-0.210140333825749	-0.5753037941783196	1.733086677270246	-0.7712011852256317	-0.7712011852256762	0.4097017664340313	-0.03667353791616123	-0.6160485433935332	-0.3621564010479189	2.220818193050781e-07	1.295462062748894e-07	-1.926706177663005e-06	1.256144082755643e-06	1.170179423237997e-07	4.006366631429741e-07	-1.25403221897878e-06
